# xmcd
#
# Track frame offsets: 
#        150
#        12975
#        26813
#
# Disc length: 535 seconds
#
# Revision: 0
# Processed by: cddbd v1.5.2PL0 Copyright (c) Steve Scherf et al.
# Submitted via: ExactAudioCopy v0.99pb4
#
DISCID=1c021503
DTITLE=I'm Kingfisher - Antartica EP
DYEAR=2010
DGENRE=Country
TTITLE0=Third Day Your Smile
TTITLE1=Church of Reconciliation
TTITLE2=Willing Night Plants (Frankie's take)
EXTD=
EXTT0=
EXTT1=
EXTT2=
PLAYORDER=
